<?xml version="1.0" standalone="no"?><!-- Generator: Gravit.io --><svg xmlns="http://www.w3.org/2000/svg" xmlns:xlink="http://www.w3.org/1999/xlink" style="isolation:isolate" viewBox="0 0 122.5 250" width="122.5" height="250"><defs><clipPath id="_clipPath_rSgnQtE1cA745S0wOXrmlWjcYBJDEnKB"><rect width="122.5" height="250"/></clipPath></defs><g clip-path="url(#_clipPath_rSgnQtE1cA745S0wOXrmlWjcYBJDEnKB)"><rect x="0" y="1.182" width="122.455" height="250" transform="matrix(1,0,0,1,0,0)" fill="rgb(0,0,0)"/><g><path d=" M 85.194 104.19 L 64.576 7.455 L 45.702 95.431 L 35.571 59.923 C 35.571 59.923 6.057 155.958 6.285 192.227 C 5.894 223.912 30.676 248.693 62.35 248.3 C 94.012 247.933 119.395 222.549 119.779 190.871 C 120.219 153.934 98.731 76.33 98.731 76.33 L 85.194 104.19 Z " fill="rgb(255,87,34)"/><path d=" M 79.83 138.241 L 64.685 81.024 L 49.762 142.217 L 37.513 117.975 C 37.513 117.975 26.04 166.605 25.39 192.668 C 25.21 202.833 29.143 212.541 36.297 219.588 C 50.966 234.258 74.062 233.98 89.088 218.955 C 96.768 211.275 100.186 201.337 100.637 191.771 C 100.875 171.974 94.323 112.665 94.323 112.665 L 79.83 138.241 Z " fill="rgb(255,152,0)"/><path d=" M 46.71 176.577 C 37.361 185.926 37.186 200.444 46.314 209.571 C 55.441 218.699 69.959 218.524 79.308 209.175 C 88.658 199.826 88.832 185.308 79.705 176.181 C 70.577 167.053 56.059 167.227 46.71 176.577 Z " fill="rgb(255,193,7)"/><path d=" M 54.86 184.726 C 52.62 186.927 51.338 189.914 51.301 193.016 C 51.264 196.119 52.475 199.076 54.662 201.224 C 59.219 205.781 66.491 205.693 71.159 201.025 C 75.827 196.357 75.914 189.085 71.357 184.528 C 66.8 179.971 59.528 180.058 54.86 184.726 Z " fill="rgb(255,249,196)"/></g></g></svg>