<?xml version="1.0" standalone="no"?><!-- Generator: Gravit.io --><svg xmlns="http://www.w3.org/2000/svg" xmlns:xlink="http://www.w3.org/1999/xlink" style="isolation:isolate" viewBox="0 0 560 315" width="560" height="315"><defs><clipPath id="_clipPath_VsIZW0NGwFLsHuYCWKmIzNN3pCUWzAmX"><rect width="560" height="315"/></clipPath></defs><g clip-path="url(#_clipPath_VsIZW0NGwFLsHuYCWKmIzNN3pCUWzAmX)"><rect x="195.455" y="34.182" width="121.212" height="251" transform="matrix(1,0,0,1,0,0)" fill="rgb(0,0,0)"/><g><path d=" M 278.194 137.19 L 257.576 40.455 L 238.702 128.431 L 228.571 92.923 C 228.571 92.923 199.057 188.958 199.285 225.227 C 198.894 256.912 223.676 281.693 255.35 281.3 C 287.012 280.933 312.395 255.549 312.779 223.871 C 313.219 186.934 291.731 109.33 291.731 109.33 L 278.194 137.19 Z " fill="rgb(255,87,34)"/><path d=" M 272.83 171.241 L 257.685 114.024 L 242.762 175.217 L 230.513 150.975 C 230.513 150.975 219.04 199.605 218.39 225.668 C 218.21 235.833 222.143 245.541 229.297 252.588 C 243.966 267.258 267.062 266.98 282.088 251.955 C 289.768 244.275 293.186 234.337 293.637 224.771 C 293.875 204.974 287.323 145.665 287.323 145.665 L 272.83 171.241 Z " fill="rgb(255,152,0)"/><path d=" M 239.71 209.577 C 230.361 218.926 230.186 233.444 239.314 242.571 C 248.441 251.699 262.959 251.524 272.308 242.175 C 281.658 232.826 281.832 218.308 272.705 209.181 C 263.577 200.053 249.059 200.227 239.71 209.577 Z " fill="rgb(255,193,7)"/><path d=" M 247.86 217.726 C 245.62 219.927 244.338 222.914 244.301 226.016 C 244.264 229.119 245.475 232.076 247.662 234.224 C 252.219 238.781 259.491 238.693 264.159 234.025 C 268.827 229.357 268.914 222.085 264.357 217.528 C 259.8 212.971 252.528 213.058 247.86 217.726 Z " fill="rgb(255,249,196)"/></g></g></svg>