<?xml version="1.0" standalone="no"?><!-- Generator: Gravit.io --><svg xmlns="http://www.w3.org/2000/svg" xmlns:xlink="http://www.w3.org/1999/xlink" style="isolation:isolate" viewBox="0 0 560 315" width="560" height="315"><defs><clipPath id="_clipPath_PW9XQXNlVtc2PoXzmuidkMK5MHNC1UMJ"><rect width="560" height="315"/></clipPath></defs><g clip-path="url(#_clipPath_PW9XQXNlVtc2PoXzmuidkMK5MHNC1UMJ)"><g><rect x="121" y="6" width="302" height="302" transform="matrix(1,0,0,1,0,0)" fill="rgb(0,0,0)"/><path d=" M 143 207 L 143 130 L 178 130 L 178 113 L 214 113 L 214 92 L 254 92 L 254 33 L 294 33 L 294 90 L 328 90 L 328 111 L 368 111 L 368 128 L 403 128 L 403 204 L 366 204 L 366 187 L 330 187 L 330 169 L 292 169 L 292 223 L 328 223 L 328 243 L 366 243 L 366 282 L 329 282 L 329 262 L 290 262 L 290 279 L 255 279 L 255 261 L 216 261 L 216 281 L 179 281 L 179 241 L 215 241 L 215 224 L 254 224 L 254 169 L 217 169 L 217 186 L 179 186 L 179 208 L 143 207 Z " fill="rgb(255,255,255)" vector-effect="non-scaling-stroke" stroke-width="1" stroke="rgb(0,0,0)" stroke-linejoin="miter" stroke-linecap="square" stroke-miterlimit="3"/></g></g></svg>