<?xml version="1.0" standalone="no"?><!-- Generator: Gravit.io --><svg xmlns="http://www.w3.org/2000/svg" xmlns:xlink="http://www.w3.org/1999/xlink" style="isolation:isolate" viewBox="0 0 260 250" width="260" height="250"><defs><clipPath id="_clipPath_P5oCCky1knMG8EPmnRcyWfCw9PP1jPn3"><rect width="260" height="250"/></clipPath></defs><g clip-path="url(#_clipPath_P5oCCky1knMG8EPmnRcyWfCw9PP1jPn3)"><path d=" M -1 175 L -1 98 L 34 98 L 34 81 L 70 81 L 70 60 L 110 60 L 110 1 L 150 1 L 150 58 L 184 58 L 184 79 L 224 79 L 224 96 L 259 96 L 259 172 L 222 172 L 222 155 L 186 155 L 186 137 L 148 137 L 148 191 L 184 191 L 184 211 L 222 211 L 222 250 L 185 250 L 185 230 L 146 230 L 146 247 L 111 247 L 111 229 L 72 229 L 72 249 L 35 249 L 35 209 L 71 209 L 71 192 L 110 192 L 110 137 L 73 137 L 73 154 L 35 154 L 35 176 L -1 175 Z " fill="rgb(255,255,255)" vector-effect="non-scaling-stroke" stroke-width="1" stroke="rgb(0,0,0)" stroke-linejoin="miter" stroke-linecap="square" stroke-miterlimit="3"/></g></svg>